<?xml version="1.0" encoding="utf-8"?>
<!-- Generator: Adobe Illustrator 16.0.0, SVG Export Plug-In . SVG Version: 6.00 Build 0)  -->
<!DOCTYPE svg PUBLIC "-//W3C//DTD SVG 1.1 Tiny//EN" "http://www.w3.org/Graphics/SVG/1.1/DTD/svg11-tiny.dtd">
<svg version="1.1" baseProfile="tiny" id="Layer_1" xmlns="http://www.w3.org/2000/svg" xmlns:xlink="http://www.w3.org/1999/xlink"
	 x="0px" y="0px" width="100px" height="100px" viewBox="0 0 100 100" xml:space="preserve">
<g>
	<path fill="#FFFFFF" d="M92.229,56.212c0,0.826-0.662,1.816-1.538,1.98l-10.174,1.539c-0.604,1.76-1.267,3.411-2.145,5.007
		c1.868,2.692,3.848,5.11,5.885,7.587c0.327,0.385,0.549,0.878,0.549,1.375c0,0.493-0.164,0.877-0.493,1.263
		c-1.322,1.759-8.746,9.844-10.614,9.844c-0.496,0-0.99-0.221-1.431-0.498l-7.587-5.935c-1.595,0.824-3.299,1.538-5.002,2.087
		c-0.389,3.355-0.718,6.931-1.596,10.229c-0.22,0.877-0.99,1.538-1.979,1.538H43.896c-0.99,0-1.868-0.712-1.98-1.65l-1.54-10.117
		c-1.703-0.549-3.354-1.21-4.946-2.031l-7.756,5.879c-0.385,0.333-0.878,0.498-1.375,0.498c-0.493,0-0.99-0.221-1.375-0.605
		c-2.914-2.637-6.762-6.048-9.07-9.238c-0.277-0.386-0.385-0.822-0.385-1.263c0-0.497,0.164-0.882,0.437-1.267
		c1.872-2.529,3.904-4.946,5.776-7.531c-0.934-1.76-1.704-3.575-2.257-5.442l-10.06-1.487c-0.934-0.165-1.595-1.043-1.595-1.98
		V43.788c0-0.826,0.661-1.816,1.483-1.979l10.228-1.54c0.55-1.759,1.267-3.411,2.145-5.058c-1.868-2.642-3.848-5.114-5.884-7.592
		c-0.329-0.385-0.549-0.821-0.549-1.319c0-0.492,0.22-0.877,0.493-1.262c1.323-1.816,8.746-9.845,10.613-9.845
		c0.497,0,0.99,0.221,1.431,0.55l7.587,5.884c1.595-0.825,3.299-1.539,5.002-2.088c0.389-3.354,0.718-6.931,1.596-10.229
		c0.22-0.877,0.99-1.538,1.98-1.538h12.208c0.989,0,1.868,0.713,1.979,1.65l1.539,10.117c1.704,0.549,3.355,1.21,4.947,2.032
		l7.812-5.88c0.327-0.333,0.821-0.498,1.317-0.498c0.493,0,0.991,0.221,1.375,0.55c2.915,2.693,6.763,6.104,9.07,9.347
		c0.276,0.333,0.385,0.77,0.385,1.21c0,0.498-0.164,0.883-0.436,1.268c-1.873,2.529-3.905,4.946-5.776,7.531
		c0.934,1.759,1.704,3.575,2.256,5.391l10.061,1.539c0.934,0.164,1.596,1.042,1.596,1.979V56.212z M50,35.924
		c-7.751,0-14.077,6.325-14.077,14.076c0,7.752,6.325,14.076,14.077,14.076c7.751,0,14.076-6.324,14.076-14.076
		C64.076,42.249,57.751,35.924,50,35.924z"/>
</g>
<g>
</g>
<g>
</g>
<g>
</g>
<g>
</g>
<g>
</g>
<g>
</g>
</svg>
